<?xml version="1.0" encoding="UTF-8"?>
<svg xmlns="http://www.w3.org/2000/svg" xmlns:xlink="http://www.w3.org/1999/xlink" width="150px" height="150px" viewBox="0 0 150 120" version="1.1">
<g id="surface1">
<path style=" stroke:none;fill-rule:nonzero;fill:rgb(0.392157%,0.392157%,0.392157%);fill-opacity:1;" d="M 73.3125 32.84375 C 76.515625 32.753906 79.722656 32.828125 82.929688 32.804688 L 96.535156 32.804688 C 97.101562 32.804688 97.675781 32.773438 98.234375 32.90625 C 99.578125 33.191406 100.777344 34.070312 101.464844 35.257812 C 102.214844 36.53125 102.335938 38.144531 101.800781 39.515625 C 101.222656 41.042969 99.84375 42.234375 98.246094 42.570312 C 97.636719 42.71875 97.003906 42.679688 96.386719 42.683594 L 74.730469 42.683594 C 70.121094 42.734375 65.585938 44.746094 62.441406 48.113281 C 59.183594 51.535156 57.445312 56.339844 57.78125 61.054688 C 58.050781 65.519531 60.179688 69.824219 63.535156 72.777344 C 66.621094 75.542969 70.726562 77.136719 74.875 77.164062 C 76.078125 77.152344 77.300781 77.523438 78.238281 78.300781 C 79.378906 79.222656 80.050781 80.707031 79.933594 82.179688 C 79.824219 83.453125 79.425781 84.765625 78.53125 85.710938 C 77.730469 86.570312 76.554688 87 75.394531 87.046875 C 69.863281 87.1875 64.300781 85.535156 59.734375 82.410156 C 55.601562 79.589844 52.269531 75.613281 50.210938 71.050781 C 48 66.179688 47.332031 60.640625 48.214844 55.371094 C 49.199219 49.375 52.332031 43.78125 56.84375 39.726562 C 61.335938 35.640625 67.253906 33.179688 73.3125 32.84375 Z M 73.3125 32.84375 "/>
<path style=" stroke:none;fill-rule:nonzero;fill:rgb(0.392157%,0.392157%,0.392157%);fill-opacity:1;" d="M 74.363281 55.015625 C 76.203125 54.945312 78.046875 54.996094 79.886719 54.980469 C 85.789062 54.976562 91.6875 54.984375 97.585938 54.984375 C 100.03125 55.132812 102.117188 57.335938 102.128906 59.785156 C 102.144531 66.8125 102.132812 73.839844 102.136719 80.867188 C 102.125 81.699219 102.195312 82.554688 101.972656 83.371094 C 101.589844 84.855469 100.472656 86.121094 99.050781 86.695312 C 97.273438 87.445312 95.074219 87.019531 93.710938 85.648438 C 92.816406 84.777344 92.269531 83.554688 92.234375 82.304688 C 92.195312 80.410156 92.355469 78.492188 91.972656 76.621094 C 91.210938 72.566406 88.605469 68.917969 85.042969 66.851562 C 83.417969 65.898438 81.621094 65.277344 79.757812 65.015625 C 78.402344 64.816406 77.027344 64.878906 75.660156 64.867188 C 75.085938 64.867188 74.503906 64.902344 73.945312 64.765625 C 72.535156 64.472656 71.285156 63.527344 70.613281 62.257812 C 69.949219 61.027344 69.851562 59.515625 70.335938 58.207031 C 70.953125 56.507812 72.566406 55.222656 74.363281 55.015625 Z M 74.363281 55.015625 "/>
</g>
</svg>
